# xmcd
#
# Track frame offsets: 
#        150
#        17622
#        30407
#        42347
#        54792
#        74955
#        90520
#        103065
#        122177
#        135302
#        147785
#        159352
#        170152
#        179542
#        191147
#        209660
#        222200
#        238865
#        248555
#        261657
#
# Disc length: 3645 seconds
#
# Revision: 4
# Processed by: cddbd v1.5.2PL0 Copyright (c) Steve Scherf et al.
# Submitted via: ExactAudioCopy v0.95b4
#
DISCID=2c0e3b14
DTITLE=Various Artist - 20 Soul Classics - Raise Your Hand
DYEAR=1999
DGENRE=Soul
TTITLE0=Curtis Mayfield - Superfly
TTITLE1=The Supremes - Stop In The Name Of Love
TTITLE2=James Brown - Sex Machine (Live)
TTITLE3=Bob and Earl - Harlem Shuffle
TTITLE4=Rose Royce - Wishing On A Star
TTITLE5=Al Wilson - Show and Tell
TTITLE6=The Temptations - Ain't Too Proud To Beg
TTITLE7=The Miracles - Love Machine
TTITLE8=The Four Tops - Baby I Need Your Lovin' (Live)
TTITLE9=The Tymes - You Little Trustmaker
TTITLE10=Percy Sledge - (Sittin' On) The Dock Of The Bay
TTITLE11=Eddie Floyd - Raise Your Hand
TTITLE12=Gene Allison - You Can Make It If You Try
TTITLE13=The Drifters - Under The Boardwalk
TTITLE14=The Chi-Lites - Have You Seen Her
TTITLE15=Gladys Knight - Letter Full Of Tears
TTITLE16=Ike and Tina Turner - I've Been Loving You Too Long (Live)
TTITLE17=Betty Everett - Getting Mighty Crowded
TTITLE18=Kool and The Gang - Cherish (Live)
TTITLE19=James Brown - I Got You (I Feel Good) (Live)
EXTD=ID3G: 0
EXTT0=
EXTT1=
EXTT2=
EXTT3=
EXTT4=
EXTT5=
EXTT6=
EXTT7=
EXTT8=
EXTT9=
EXTT10=
EXTT11=
EXTT12=
EXTT13=
EXTT14=
EXTT15=
EXTT16=
EXTT17=
EXTT18=
EXTT19=
PLAYORDER=
